<?xml version="1.0" encoding="utf-8"?>
<!-- Generator: Adobe Illustrator 16.0.4, SVG Export Plug-In . SVG Version: 6.00 Build 0)  -->
<!DOCTYPE svg PUBLIC "-//W3C//DTD SVG 1.1//EN" "http://www.w3.org/Graphics/SVG/1.1/DTD/svg11.dtd">
<svg version="1.1" id="Layer_1" xmlns="http://www.w3.org/2000/svg" xmlns:xlink="http://www.w3.org/1999/xlink" x="0px" y="0px"
	 width="30px" height="19px" viewBox="0 0 51.266 31.785" enable-background="new 0 0 51.266 31.785" xml:space="preserve">
<g>
	<path fill="#FF3F81" d="M45.414,2.625C48.781,2.625,51,5.36,51,8.727V26.27c0,3.371-1.703,5.516-5.074,5.516H13.129
		C9.762,31.785,6,29.641,6,26.27V8.727c0-3.367,2.988-6.102,6.359-6.102"/>
	<path fill="#FFFFFF" d="M51.266,6.442l-18.719,11.41c-1.855,1.062-4.129,1.074-5.996,0.035L8.172,6.442"/>
	<path d="M40.676,31.035H7.879C3.965,31.035,0,28.883,0,24.77V7.227C0,3.313,3.383,0,7.391,0c0.621,0,1.125,0.504,1.125,1.125
		S8.012,2.25,7.391,2.25c-2.786,0-5.141,2.282-5.141,4.977V24.77c0,2.638,2.832,4.016,5.629,4.016h32.797
		c2.871,0,4.324-1.352,4.324-4.016V7.227c0-2.836-2-4.977-4.648-4.977c-0.621,0-1.125-0.504-1.125-1.125S39.73,0,40.352,0
		c3.934,0,6.898,3.11,6.898,7.227V24.77C47.25,28.696,44.793,31.035,40.676,31.035L40.676,31.035z M40.676,31.035"/>
	<path d="M24.254,18.274c-1.211,0-2.418-0.306-3.5-0.907L2.328,5.895C1.801,5.567,1.641,4.871,1.969,4.344
		c0.328-0.527,1.023-0.687,1.547-0.359L21.895,15.43c1.468,0.816,3.339,0.804,4.843-0.055L44.664,3.992
		c0.523-0.335,1.219-0.179,1.551,0.344c0.332,0.524,0.18,1.219-0.344,1.555l-17.969,11.41C26.77,17.95,25.508,18.274,24.254,18.274
		L24.254,18.274z M24.254,18.274"/>
</g>
</svg>
