<?xml version="1.0" encoding="utf-8"?>
<!-- Generator: Adobe Illustrator 16.0.4, SVG Export Plug-In . SVG Version: 6.00 Build 0)  -->
<!DOCTYPE svg PUBLIC "-//W3C//DTD SVG 1.1//EN" "http://www.w3.org/Graphics/SVG/1.1/DTD/svg11.dtd">
<svg version="1.1" id="Layer_1" xmlns="http://www.w3.org/2000/svg" xmlns:xlink="http://www.w3.org/1999/xlink" x="0px" y="0px"
	 width="30px" height="30px" viewBox="0 0 414 415" enable-background="new 0 0 414 415" xml:space="preserve">
<path fill="#FFFFFF" d="M278,163l-8,56h-40v140h-72V227h-40v-64h48v-56c0,0,0-56,56-56h48v56h-32c0,0-8,0-8,8v48H278z M278,163"/>
<path fill="#7740FF" d="M414,55v344c0,8.797-7.203,16-16,16H54c-8.797,0-16-7.203-16-16V55c0-8.801,7.203-16,16-16h344
	C406.797,39,414,46.199,414,55L414,55z M298,239l8-56h-48v-48c0-8,8-8,8-8h32V71h-48c-56,0-56,56-56,56v56h-48v64h40v132h72V239H298
	z M298,239"/>
<path fill="#231F20" d="M368,0H24C10.766,0,0,10.766,0,24v344c0,13.234,10.766,24,24,24h344c13.234,0,24-10.766,24-24V24
	C392,10.766,381.234,0,368,0L368,0z M376,368c0,4.41-3.59,8-8,8H24c-4.41,0-8-3.59-8-8V24c0-4.41,3.59-8,8-8h344c4.41,0,8,3.59,8,8
	V368z M376,368"/>
<path fill="#231F20" d="M276,144h-40v-39.973c0.062-0.011,0.121-0.019,0.176-0.027H268c4.418,0,8-3.582,8-8V40c0-4.418-3.582-8-8-8
	h-48c-33.016,0-48.762,17.633-56.156,32.422C156.09,79.934,156,95.352,156,96v48h-40c-4.418,0-8,3.582-8,8v64c0,4.418,3.582,8,8,8
	h32v124c0,4.418,3.582,8,8,8h72c4.418,0,8-3.582,8-8V216h32c3.98,0,7.355-2.926,7.918-6.867l8-56
	c0.328-2.297-0.355-4.621-1.875-6.375C280.523,145.008,278.32,144,276,144L276,144z M261.062,200H228c-4.418,0-8,3.582-8,8v132h-56
	V216c0-4.418-3.582-8-8-8h-32v-48h40c4.418,0,8-3.582,8-8V96.023c0-0.125,0.152-12.734,6.383-24.894
	C186.246,55.781,200.25,48,220,48h40v40h-24c-7.758,0-16,5.605-16,16v48c0,4.418,3.582,8,8,8h38.777L261.062,200z M261.062,200"/>
</svg>
