<?xml version="1.0" encoding="utf-8"?>
<!-- Generator: Adobe Illustrator 16.0.4, SVG Export Plug-In . SVG Version: 6.00 Build 0)  -->
<!DOCTYPE svg PUBLIC "-//W3C//DTD SVG 1.1//EN" "http://www.w3.org/Graphics/SVG/1.1/DTD/svg11.dtd">
<svg version="1.1" id="Layer_1" xmlns="http://www.w3.org/2000/svg" xmlns:xlink="http://www.w3.org/1999/xlink" x="0px" y="0px"
	 width="30px" height="30px" viewBox="0 0 406 404" enable-background="new 0 0 406 404" xml:space="preserve">
<path fill="#FFFFFF" d="M196,148c26.477,0,48,21.52,48,48c0,26.478-21.523,48-48,48c-26.48,0-48-21.522-48-48
	C148,169.52,169.52,148,196,148L196,148z M196,148"/>
<path fill="#FF3F81" d="M406,100v232c0,39.758-32.242,72-72,72H102c-39.762,0-72-32.242-72-72V100c0-39.762,32.238-72,72-72h232
	C373.758,28,406,60.238,406,100L406,100z M366,292V136c0-39.762-32.242-72-72-72H142c-39.762,0-72,32.238-72,72v156
	c0,39.758,32.238,72,72,72h152C333.758,364,366,331.758,366,292L366,292z M366,292"/>
<path fill="#231F20" d="M196,108c-48.523,0-88,39.477-88,88c0,48.523,39.477,88,88,88s88-39.477,88-88
	C284,147.477,244.523,108,196,108L196,108z M196,268c-39.699,0-72-32.301-72-72c0-39.699,32.301-72,72-72s72,32.301,72,72
	C268,235.699,235.699,268,196,268L196,268z M196,268"/>
<path fill="#231F20" d="M284,72c-15.438,0-28,12.562-28,28c0,15.438,12.562,28,28,28s28-12.562,28-28C312,84.562,299.438,72,284,72
	L284,72z M284,112c-6.617,0-12-5.383-12-12c0-6.617,5.383-12,12-12s12,5.383,12,12C296,106.617,290.617,112,284,112L284,112z
	 M284,112"/>
<path fill="#231F20" d="M196,140c-30.879,0-56,25.121-56,56s25.121,56,56,56s56-25.121,56-56S226.879,140,196,140L196,140z M196,236
	c-22.055,0-40-17.944-40-40c0-22.055,17.945-40,40-40s40,17.945,40,40C236,218.056,218.055,236,196,236L196,236z M196,236"/>
<path fill="#231F20" d="M272,36H120c-44.113,0-80,35.887-80,80v156c0,44.113,35.887,80,80,80h152c44.113,0,80-35.887,80-80V116
	C352,71.887,316.113,36,272,36L272,36z M336,272c0,35.289-28.711,64-64,64H120c-35.289,0-64-28.711-64-64V116
	c0-35.289,28.711-64,64-64h152c35.289,0,64,28.711,64,64V272z M336,272"/>
<path fill="#231F20" d="M312,0H80C35.887,0,0,35.887,0,80v232c0,44.113,35.887,80,80,80h232c44.113,0,80-35.887,80-80V80
	C392,35.887,356.113,0,312,0L312,0z M376,312c0,35.289-28.711,64-64,64H80c-35.289,0-64-28.711-64-64V80c0-35.289,28.711-64,64-64
	h232c35.289,0,64,28.711,64,64V312z M376,312"/>
</svg>
