<?xml version="1.0" encoding="utf-8"?>
<!-- Generator: Adobe Illustrator 16.0.4, SVG Export Plug-In . SVG Version: 6.00 Build 0)  -->
<!DOCTYPE svg PUBLIC "-//W3C//DTD SVG 1.1//EN" "http://www.w3.org/Graphics/SVG/1.1/DTD/svg11.dtd">
<svg version="1.1" id="Layer_1" xmlns="http://www.w3.org/2000/svg" xmlns:xlink="http://www.w3.org/1999/xlink" x="0px" y="0px"
	 width="30px" height="30px" viewBox="0 0 50 49" enable-background="new 0 0 50 49" xml:space="preserve">
<g>
	<path d="M38.167,19.441c-0.621,0-1.125-0.503-1.125-1.125c0-3.937-3.203-7.144-7.141-7.144c-0.621,0-1.125-0.5-1.125-1.125
		c0-0.621,0.504-1.125,1.125-1.125c5.18,0,9.391,4.215,9.391,9.394C39.292,18.938,38.789,19.441,38.167,19.441L38.167,19.441z
		 M38.167,19.441"/>
	<g>
		<defs>
			<rect id="SVGID_1_" width="50" height="49"/>
		</defs>
		<clipPath id="SVGID_2_">
			<use xlink:href="#SVGID_1_"  overflow="visible"/>
		</clipPath>
		<path clip-path="url(#SVGID_2_)" d="M42.578,18.891c-0.621,0-1.125-0.504-1.125-1.125c0-6.067-4.934-11.004-11-11.004
			c-0.621,0-1.125-0.5-1.125-1.125c0-0.621,0.504-1.125,1.125-1.125c7.305,0,13.25,5.945,13.25,13.254
			C43.703,18.387,43.199,18.891,42.578,18.891L42.578,18.891z M42.578,18.891"/>
		<path clip-path="url(#SVGID_2_)" fill="#FF3F81" d="M40.441,30.56l-4.895,4.894L18.008,17.914l4.894-4.891
			c1.172-1.171,1.172-3.074,0-4.246L18.375,4.25c-1.164-1.164-3.074-1.164-4.242,0l-8.25,8.254c-2.344,2.344-2.344,6.141,0,8.484
			L31.89,46.996c2.344,2.344,6.141,2.344,8.484,0l8.254-8.25c1.172-1.172,1.172-3.07,0-4.242l-3.941-3.944
			C43.515,29.392,41.613,29.392,40.441,30.56L40.441,30.56z M40.441,30.56"/>
	</g>
	<path d="M33.132,48.379c-1.902,0-3.691-0.741-5.039-2.086L2.086,20.285C0.742,18.938,0,17.148,0,15.246
		c0-1.902,0.742-3.691,2.086-5.039l8.254-8.25c0.777-0.777,1.812-1.207,2.914-1.207c1.105,0,2.141,0.43,2.918,1.207l4.527,4.527
		c1.61,1.606,1.61,4.223,0,5.832l-4.097,4.098l15.944,15.949l4.102-4.097c0.777-0.782,1.812-1.207,2.914-1.207
		c1.105,0,2.141,0.425,2.918,1.207l3.941,3.94c0.781,0.781,1.211,1.816,1.211,2.918c0,1.103-0.43,2.137-1.211,2.914l-8.25,8.254
		C36.824,47.638,35.035,48.379,33.132,48.379L33.132,48.379z M13.254,3c-0.5,0-0.973,0.195-1.324,0.547l-8.25,8.254
		c-0.922,0.918-1.43,2.144-1.43,3.445c0,1.301,0.508,2.527,1.43,3.449l26.007,26.008c0.918,0.918,2.145,1.426,3.445,1.426
		s2.527-0.508,3.449-1.426l8.25-8.254c0.73-0.73,0.73-1.922,0-2.652l-3.941-3.941c-0.707-0.707-1.945-0.707-2.652,0l-4.895,4.895
		c-0.422,0.422-1.168,0.422-1.59,0L14.215,17.211c-0.211-0.211-0.332-0.496-0.332-0.797c0-0.297,0.121-0.582,0.332-0.793
		l4.894-4.894c0.352-0.356,0.547-0.825,0.547-1.329c0-0.5-0.195-0.968-0.547-1.324l-4.527-4.527C14.23,3.195,13.758,3,13.254,3
		L13.254,3z M13.254,3"/>
	<path d="M43.074,40.926c-0.289,0-0.578-0.109-0.797-0.327l-8.184-8.188c-0.441-0.437-0.441-1.148,0-1.59
		c0.438-0.438,1.148-0.438,1.59,0l8.184,8.188c0.441,0.438,0.441,1.148,0,1.591C43.648,40.816,43.359,40.926,43.074,40.926
		L43.074,40.926z M43.074,40.926"/>
	<path d="M17.348,15.203c-0.289,0-0.575-0.109-0.797-0.332l-8.77-8.769c-0.437-0.438-0.437-1.149,0-1.59
		c0.442-0.438,1.153-0.438,1.594,0l8.77,8.769c0.437,0.438,0.437,1.153,0,1.59C17.922,15.094,17.637,15.203,17.348,15.203
		L17.348,15.203z M17.348,15.203"/>
</g>
</svg>
